<?xml version="1.0" standalone="no"?>
<!DOCTYPE svg PUBLIC "-//W3C//DTD SVG 20010904//EN"
 "http://www.w3.org/TR/2001/REC-SVG-20010904/DTD/svg10.dtd">
<svg version="1.0" xmlns="http://www.w3.org/2000/svg"
 width="1144.000000pt" height="354.000000pt" viewBox="0 0 1144.000000 354.000000"
 preserveAspectRatio="xMidYMid meet">
<metadata>
Created by potrace 1.16, written by Peter Selinger 2001-2019
</metadata>
<g transform="translate(0.000000,354.000000) scale(0.100000,-0.100000)"
fill="#000000" stroke="none">
<path d="M1250 3061 c-71 -15 -128 -60 -166 -131 -18 -33 -19 -76 -19 -920 0
-844 1 -887 19 -920 26 -49 64 -88 111 -113 l40 -22 1275 0 1275 0 40 21 c51
28 88 65 112 112 17 35 18 82 18 922 0 840 -1 887 -18 922 -24 47 -61 84 -112
112 l-40 21 -1250 1 c-687 1 -1266 -1 -1285 -5z m1668 -592 c213 -100 402
-192 420 -206 46 -35 65 -77 60 -133 -6 -58 -37 -104 -89 -130 l-39 -20 0
-295 0 -295 -50 0 -50 0 0 265 c0 146 -3 265 -6 265 -3 0 -145 -72 -314 -160
-230 -120 -316 -160 -343 -160 -26 0 -133 45 -368 156 -440 206 -463 218 -489
254 -44 61 -35 154 18 205 40 38 802 434 835 435 17 0 191 -76 415 -181z m122
-861 c0 -116 -3 -137 -20 -166 -37 -61 -44 -62 -515 -62 -407 0 -428 1 -465
20 -61 31 -71 60 -68 199 l3 119 255 -120 c208 -97 261 -118 288 -114 18 3
139 61 270 129 130 69 240 125 245 126 4 1 7 -59 7 -131z"/>
<path d="M4557 2493 c-9 -8 -9 -56 -1 -105 l7 -38 118 0 c107 0 119 -2 119
-17 0 -10 -61 -196 -135 -413 -74 -217 -135 -400 -135 -406 0 -19 54 -24 276
-24 140 0 215 4 219 11 4 6 9 36 12 68 4 42 2 61 -8 66 -7 5 -68 9 -136 10
-74 1 -128 6 -134 12 -12 12 64 253 178 563 36 96 67 199 70 228 l6 52 -225 0
c-124 0 -228 -3 -231 -7z"/>
<path d="M5187 2494 c-4 -4 -7 -229 -7 -500 l0 -493 33 -6 c17 -4 55 -5 82 -3
l50 3 3 207 c3 242 -11 221 137 216 l90 -3 3 -212 2 -213 75 0 c42 0 77 5 80
11 10 15 16 884 7 944 l-7 50 -65 3 c-36 1 -72 -2 -80 -8 -12 -8 -15 -42 -15
-207 l0 -198 -108 -3 c-88 -2 -108 0 -113 12 -3 8 -6 102 -7 208 l-2 193 -75
3 c-42 1 -79 0 -83 -4z"/>
<path d="M8098 2481 c-247 -81 -380 -355 -308 -635 11 -43 32 -101 47 -129 39
-73 131 -162 200 -195 53 -25 68 -27 175 -27 75 1 122 5 129 12 8 8 12 85 13
250 l1 238 -128 3 -128 3 3 -63 3 -63 35 -3 c56 -6 60 -14 60 -124 l0 -101
-50 5 c-106 10 -163 83 -196 252 -22 109 -11 198 36 292 64 130 150 163 333
127 l27 -5 0 75 c0 57 -4 78 -17 88 -26 23 -167 22 -235 0z"/>
<path d="M6161 1992 l-251 -502 500 0 c275 0 500 3 499 8 0 4 -112 230 -248
502 l-249 495 -251 -503z m399 38 c77 -154 140 -282 140 -285 0 -3 -88 -5
-195 -5 l-195 0 22 45 22 45 98 0 c54 0 98 3 97 8 0 4 -31 68 -68 142 l-69
135 -111 -223 c-61 -122 -111 -224 -111 -227 0 -3 125 -5 278 -5 l278 0 22
-45 22 -45 -375 0 -374 0 103 213 c165 340 260 527 268 527 5 0 71 -126 148
-280z"/>
<path d="M7080 2480 c-13 -8 -15 -74 -15 -497 l0 -488 80 0 80 0 -4 284 c-3
235 -1 283 10 279 8 -3 66 -126 129 -274 63 -148 119 -275 123 -282 5 -7 31
-12 67 -12 48 0 61 4 70 19 11 22 15 895 4 950 l-7 32 -76 -3 -76 -3 4 -287
c3 -190 0 -288 -6 -288 -11 0 -17 13 -144 323 -49 120 -93 226 -99 237 -9 16
-21 20 -68 20 -31 0 -64 -5 -72 -10z"/>
<path d="M8507 2483 c-9 -8 -9 -507 0 -781 l6 -212 71 0 c39 0 129 3 199 7
l128 6 -3 76 -3 76 -117 3 -118 3 0 392 c0 216 -3 402 -6 415 -6 20 -12 22
-78 22 -40 0 -76 -3 -79 -7z"/>
<path d="M9216 2268 c-26 -123 -72 -331 -101 -463 -29 -132 -56 -255 -60 -272
l-7 -33 81 0 80 0 10 38 c5 20 11 51 13 67 l3 30 85 3 c122 4 125 3 147 -70
l19 -63 68 -3 c38 -2 73 1 77 5 4 4 -3 53 -16 108 -23 96 -185 859 -185 870 0
3 -37 5 -83 5 l-83 0 -48 -222z m167 -327 c15 -68 24 -128 21 -132 -9 -15
-124 -11 -124 4 0 12 47 229 56 256 9 28 21 -5 47 -128z"/>
</g>
</svg>
